<?xml version="1.0" standalone="no"?>
<!DOCTYPE svg PUBLIC "-//W3C//DTD SVG 20010904//EN"
 "http://www.w3.org/TR/2001/REC-SVG-20010904/DTD/svg10.dtd">
<svg version="1.0" xmlns="http://www.w3.org/2000/svg"
 width="1232.000000pt" height="1232.000000pt" viewBox="0 0 1232.000000 1232.000000"
 preserveAspectRatio="xMidYMid meet">
<metadata>
Created by potrace 1.11, written by Peter Selinger 2001-2013
</metadata>
<g transform="translate(0.000000,1232.000000) scale(0.100000,-0.100000)"
fill="#000000" stroke="none">
<path d="M2357 12314 c-1 -1 -38 -4 -82 -8 -216 -15 -499 -84 -713 -172 -566
-234 -1027 -663 -1296 -1204 -91 -184 -171 -403 -200 -550 -35 -181 -40 -212
-54 -347 -8 -75 -7 -7712 1 -7773 2 -19 8 -62 12 -95 4 -33 9 -69 11 -80 2
-11 7 -33 10 -50 4 -26 17 -85 29 -135 30 -124 93 -304 153 -434 316 -688 937
-1207 1657 -1385 66 -16 140 -33 165 -37 25 -4 47 -8 50 -9 3 -1 32 -5 65 -9
33 -4 74 -10 90 -12 52 -9 7716 -12 7800 -3 726 78 1352 434 1781 1015 240
325 393 700 461 1134 17 109 18 301 18 3960 -1 3457 -3 3955 -20 4033 -2 12
-6 41 -9 64 -3 23 -12 71 -20 106 -8 36 -17 76 -20 88 -35 193 -196 561 -341
779 -218 328 -523 615 -850 800 -52 30 -233 120 -240 120 -3 0 -24 9 -48 19
-113 51 -336 119 -447 137 -19 3 -51 9 -70 14 -19 5 -62 11 -95 15 -33 4 -71
9 -85 12 -23 4 -7708 12 -7713 7z"/>
</g>
</svg>
